<svg width="19" height="19" viewBox="0 0 19 19" fill="none" xmlns="http://www.w3.org/2000/svg">
<mask id="path-1-inside-1_119_20" fill="white">
<path d="M11.8854 1.08527C11.9179 1.05278 11.9521 1.0228 11.9904 0.997355C12.3587 0.75251 14.4852 -0.485531 16.7991 1.82843C19.1131 4.14238 17.875 6.26881 17.6302 6.63714C17.6048 6.67541 17.5748 6.70963 17.5423 6.74213L7.82188 16.4625C7.69941 16.585 7.54724 16.6736 7.38026 16.7195L1.52541 18.3317C0.777306 18.5377 0.0898143 17.8503 0.295815 17.1021L1.90802 11.2473C1.954 11.0803 2.04256 10.9281 2.16503 10.8057L11.8854 1.08527Z"/>
</mask>
<path d="M10.2281 4.29901L14.4707 8.54165L15.8849 7.12743L11.6423 2.88479L10.2281 4.29901ZM1.52541 18.3317L0.99445 16.4035L1.52541 18.3317ZM0.295815 17.1021L2.22405 17.6331L0.295815 17.1021ZM1.90802 11.2473L3.83625 11.7783L1.90802 11.2473ZM7.38026 16.7195L6.84929 14.7913L7.38026 16.7195ZM17.6302 6.63714L19.2958 7.74433L17.6302 6.63714ZM16.1281 5.32791L6.40767 15.0483L9.2361 17.8767L18.9565 8.15634L16.1281 5.32791ZM3.57924 12.2199L13.2996 2.49949L10.4712 -0.328939L0.750815 9.39146L3.57924 12.2199ZM6.84929 14.7913L0.99445 16.4035L2.05637 20.26L7.91122 18.6478L6.84929 14.7913ZM2.22405 17.6331L3.83625 11.7783L-0.0202133 10.7163L-1.63242 16.5712L2.22405 17.6331ZM13.0976 2.66292C13.1293 2.64185 13.4075 2.4719 13.7823 2.44991C14.0611 2.43355 14.6189 2.47667 15.3849 3.24264L18.2133 0.414214C16.6654 -1.13377 15.003 -1.62861 13.548 -1.54323C12.189 -1.46348 11.2198 -0.891984 10.8832 -0.668214L13.0976 2.66292ZM15.3849 3.24264C16.1509 4.00862 16.194 4.56647 16.1777 4.84523C16.1557 5.22001 15.9857 5.49824 15.9646 5.52994L19.2958 7.74433C19.5195 7.40771 20.091 6.43856 20.1708 5.07956C20.2562 3.62453 19.7613 1.9622 18.2133 0.414214L15.3849 3.24264ZM0.99445 16.4035C1.74256 16.1975 2.43005 16.885 2.22405 17.6331L-1.63242 16.5712C-2.25042 18.8155 -0.187944 20.878 2.05637 20.26L0.99445 16.4035ZM0.750815 9.39146C0.38341 9.75887 0.117728 10.2154 -0.0202133 10.7163L3.83625 11.7783C3.79027 11.9452 3.70171 12.0974 3.57924 12.2199L0.750815 9.39146ZM6.40767 15.0483C6.53014 14.9258 6.68231 14.8373 6.84929 14.7913L7.91122 18.6478C8.41216 18.5098 8.86869 18.2441 9.2361 17.8767L6.40767 15.0483ZM18.9565 8.15634C19.0485 8.0643 19.1743 7.9271 19.2958 7.74433L15.9646 5.52994C16.0352 5.42372 16.101 5.35496 16.1281 5.32791L18.9565 8.15634ZM13.2996 2.49949C13.2726 2.52653 13.2038 2.59231 13.0976 2.66292L10.8832 -0.668214C10.7005 -0.546716 10.5633 -0.420981 10.4712 -0.328939L13.2996 2.49949Z" fill="#191B1D" mask="url(#path-1-inside-1_119_20)"/>
</svg>
